<?xml version="1.0" standalone="no"?>
<!DOCTYPE svg PUBLIC "-//W3C//DTD SVG 20010904//EN"
 "http://www.w3.org/TR/2001/REC-SVG-20010904/DTD/svg10.dtd">
<svg version="1.0" xmlns="http://www.w3.org/2000/svg"
 width="1172.000000pt" height="340.000000pt" viewBox="0 0 1172.000000 340.000000"
 preserveAspectRatio="xMidYMid meet">

<g transform="translate(0.000000,340.000000) scale(0.100000,-0.100000)"
fill="#000000" stroke="none">
<path d="M6180 3265 c0 -88 1 -95 20 -95 19 0 20 7 20 95 0 88 -1 95 -20 95
-19 0 -20 -7 -20 -95z"/>
<path d="M6260 3265 c0 -88 1 -95 20 -95 19 0 20 7 20 95 0 88 -1 95 -20 95
-19 0 -20 -7 -20 -95z"/>
<path d="M5837 3303 c-4 -3 -7 -46 -7 -95 0 -81 2 -88 20 -88 16 0 20 7 20 31
0 29 2 30 31 24 42 -9 69 16 69 65 0 52 -30 78 -71 63 -16 -6 -29 -7 -29 -2 0
10 -23 12 -33 2z m83 -37 c16 -20 9 -60 -12 -64 -22 -4 -38 27 -27 56 10 26
22 28 39 8z"/>
<path d="M6007 3304 c-13 -13 -7 -89 8 -111 12 -18 24 -21 68 -19 l52 1 0 65
c0 58 -2 65 -20 65 -17 0 -21 -8 -25 -50 -4 -36 -9 -50 -20 -50 -11 0 -16 14
-20 50 -3 34 -10 51 -20 53 -9 1 -19 0 -23 -4z"/>
<path d="M5535 2973 c-1630 -63 -2915 -384 -3638 -909 -48 -35 -90 -64 -92
-64 -3 0 -5 38 -5 85 0 100 -12 130 -67 168 -154 106 -430 160 -813 160 -383
0 -659 -54 -813 -160 -71 -49 -67 3 -67 -868 0 -687 2 -790 15 -816 45 -86
229 -156 530 -201 137 -20 559 -17 705 5 238 37 422 103 477 172 l28 35 5 297
5 298 106 -98 c59 -53 109 -97 112 -97 2 0 -1 27 -8 60 -11 55 -11 60 4 56
186 -56 493 -128 685 -161 221 -37 374 -48 604 -42 301 8 466 37 1101 193 211
52 388 94 392 94 5 0 9 -105 9 -232 0 -128 5 -249 10 -270 31 -109 240 -195
572 -234 176 -20 549 -15 698 10 267 46 432 114 475 196 10 20 15 61 16 137
l0 108 66 -130 67 -130 10 52 c6 28 14 54 17 58 4 3 42 -19 85 -48 240 -165
472 -238 663 -208 110 16 197 48 377 135 l154 75 0 -86 c0 -85 0 -86 35 -118
66 -63 220 -96 445 -96 225 0 392 36 454 97 24 24 26 33 28 133 l3 106 78
-112 c43 -62 82 -115 87 -118 6 -4 10 18 10 55 l0 61 83 -46 c164 -91 320
-166 408 -196 254 -85 464 1 694 285 l70 86 55 -7 c158 -21 241 7 462 153 149
99 233 141 316 156 107 20 222 -17 376 -121 l76 -52 0 676 0 675 -761 0 c-646
0 -763 -2 -775 -14 -10 -10 -14 -39 -15 -93 l0 -78 -57 113 c-31 61 -60 112
-64 112 -3 0 -10 -25 -13 -55 -4 -30 -10 -55 -13 -55 -3 0 -41 23 -84 51 -731
469 -2333 777 -3985 767 -180 -1 -359 -3 -398 -5z m1025 -43 c1143 -54 2156
-235 2850 -510 139 -55 384 -176 488 -241 l83 -52 -56 -32 -57 -32 141 -24
141 -23 0 -163 c0 -90 -2 -163 -4 -163 -3 0 -51 43 -107 95 -56 52 -104 93
-107 91 -2 -3 1 -28 7 -57 6 -28 10 -53 9 -54 -2 -2 -106 25 -233 60 -594 162
-935 218 -1340 218 -378 0 -708 -50 -1225 -184 -148 -38 -524 -144 -555 -155
-13 -5 -15 30 -15 267 0 309 0 310 -80 368 -82 59 -290 117 -510 141 -142 16
-485 13 -625 -5 -316 -41 -528 -131 -549 -235 -3 -18 -6 -153 -6 -301 0 -148
-2 -269 -5 -269 -3 0 -52 35 -108 78 -56 43 -107 82 -114 85 -7 5 -5 -15 7
-53 10 -33 14 -60 9 -60 -5 0 -82 13 -172 30 -735 135 -1195 159 -1634 85
-153 -26 -775 -180 -975 -241 -17 -5 -18 8 -18 186 0 122 4 189 10 185 5 -3
42 19 82 49 386 290 1017 544 1728 696 546 117 1122 189 1755 219 243 12 943
12 1185 1z m-520 -496 c285 -36 500 -126 500 -208 0 -139 -435 -248 -924 -233
-296 9 -520 51 -658 124 -137 72 -136 143 4 214 217 110 678 154 1078 103z
m-4762 -79 c295 -42 482 -123 482 -210 0 -90 -200 -173 -520 -216 -54 -8 -192
-13 -320 -13 -128 0 -266 5 -320 13 -321 43 -520 126 -520 216 0 105 257 194
660 229 95 8 430 -4 538 -19z m10382 -780 c0 -338 -2 -615 -4 -615 -3 0 -33
18 -68 40 -103 64 -190 92 -283 92 -124 0 -190 -28 -393 -164 -195 -131 -305
-170 -424 -148 -66 11 -172 59 -256 115 l-42 28 0 633 0 634 735 0 735 0 0
-615z m-6785 545 c11 -18 116 -66 200 -93 179 -56 427 -82 705 -74 338 10 588
64 728 157 l32 22 0 -729 0 -729 -32 -31 c-66 -63 -189 -108 -392 -145 -107
-20 -154 -23 -416 -23 -310 0 -383 8 -575 56 -97 25 -211 78 -245 114 l-25 27
-3 729 c-1 461 1 729 7 729 5 0 13 -5 16 -10z m-4692 -127 c74 -36 210 -72
357 -95 194 -31 566 -31 760 0 195 30 342 76 427 132 l33 22 0 -730 0 -729
-27 -28 c-61 -61 -217 -115 -438 -152 -153 -25 -592 -25 -745 0 -224 36 -374
88 -438 149 l-32 32 0 729 0 729 28 -18 c15 -10 48 -28 75 -41z m8422 7 c264
-20 549 -69 870 -150 167 -42 447 -120 454 -126 2 -1 -14 -23 -34 -48 -21 -26
-33 -46 -29 -46 5 0 69 11 143 25 74 14 136 25 138 25 1 0 3 -175 3 -388 l0
-388 63 -41 c34 -22 86 -52 115 -67 l53 -27 -22 -32 c-12 -18 -74 -84 -138
-148 -95 -94 -130 -122 -192 -153 -189 -93 -324 -68 -681 126 l-168 91 52 36
51 36 -99 6 c-54 4 -123 7 -151 8 l-53 1 0 323 0 323 -28 27 c-65 62 -228 97
-451 97 -227 0 -381 -33 -447 -95 l-34 -32 0 -320 0 -321 -157 -77 c-87 -42
-198 -91 -248 -108 -82 -29 -101 -31 -215 -31 -110 0 -135 4 -210 28 -122 41
-309 139 -395 209 l-29 25 52 26 c29 14 52 28 52 30 0 2 -65 16 -145 31 l-145
27 0 382 c0 299 3 383 13 383 6 0 125 33 262 72 779 223 1268 296 1750 261z
m-5039 -170 c241 -19 758 -93 986 -142 l48 -10 -35 -45 c-19 -26 -34 -48 -31
-50 3 -3 175 43 249 67 l27 9 0 -217 0 -218 -392 -97 c-582 -144 -763 -178
-1035 -196 -253 -17 -528 8 -863 79 -139 29 -490 118 -499 126 -3 3 15 25 39
49 24 25 40 45 34 45 -5 0 -68 -11 -139 -25 -72 -14 -136 -25 -142 -25 -10 0
-13 44 -13 188 l0 187 188 48 c103 26 264 67 357 92 225 60 489 113 639 130
150 16 411 18 582 5z m5144 -370 c83 -12 156 -34 198 -60 49 -30 41 -58 -28
-92 -181 -90 -706 -73 -799 26 -28 30 -20 50 32 75 127 61 373 82 597 51z
m-589 -195 c163 -74 578 -75 761 -1 l58 24 -2 -381 -3 -382 -40 -22 c-183
-101 -710 -86 -819 22 -14 15 -16 61 -16 391 0 206 2 374 4 374 2 0 28 -11 57
-25z"/>
<path d="M7900 2279 c0 -88 1 -90 23 -87 19 3 22 10 25 51 3 39 6 47 23 47 16
0 19 -7 19 -51 0 -47 2 -50 23 -47 25 3 32 31 22 84 -7 40 -36 60 -65 44 -18
-10 -20 -8 -20 20 0 25 -4 30 -25 30 -25 0 -25 -1 -25 -91z"/>
<path d="M8380 2279 c0 -88 1 -90 23 -87 14 2 23 11 25 27 l4 24 22 -27 c15
-19 29 -27 44 -24 23 3 23 3 -7 38 l-29 35 26 28 c23 24 24 27 7 27 -10 0 -29
-10 -42 -22 l-23 -21 0 46 c0 43 -2 47 -25 47 -25 0 -25 -1 -25 -91z"/>
<path d="M8880 2340 c0 -11 -4 -20 -10 -20 -5 0 -10 -7 -10 -15 0 -8 5 -15 10
-15 6 0 10 -17 10 -38 0 -45 14 -62 52 -62 33 0 39 25 8 33 -30 8 -28 64 2 69
32 5 35 28 4 28 -19 0 -26 5 -26 20 0 13 -7 20 -20 20 -13 0 -20 -7 -20 -20z"/>
<path d="M7800 2323 c-81 -30 -58 -138 27 -131 45 4 58 28 16 28 -49 0 -68 34
-37 64 10 10 24 14 40 10 17 -4 24 -2 24 9 0 20 -39 31 -70 20z"/>
<path d="M8100 2317 c-34 -17 -41 -84 -12 -111 25 -22 105 -19 110 4 2 11 -8
15 -39 15 -25 0 -44 5 -46 13 -3 8 10 12 46 12 56 0 64 12 34 48 -23 28 -62
35 -93 19z m58 -34 c2 -8 -6 -13 -22 -13 -25 0 -33 10 -19 24 10 10 36 3 41
-11z"/>
<path d="M8280 2323 c-81 -30 -58 -138 27 -131 46 4 58 28 14 28 -26 0 -51 21
-51 44 0 17 34 35 56 30 17 -4 24 -2 24 9 0 20 -39 31 -70 20z"/>
<path d="M8565 2318 c-28 -16 -35 -28 -35 -64 0 -40 27 -64 72 -64 42 0 68 25
68 66 0 35 -8 47 -37 63 -27 14 -42 14 -68 -1z m55 -33 c18 -21 4 -65 -20 -65
-24 0 -38 44 -20 65 7 8 16 15 20 15 4 0 13 -7 20 -15z"/>
<path d="M8700 2272 c0 -69 13 -83 80 -80 l55 3 3 63 c3 61 2 62 -23 62 -23 0
-25 -3 -25 -45 0 -32 -5 -47 -15 -52 -22 -8 -27 0 -32 52 -5 35 -10 45 -24 45
-16 0 -19 -8 -19 -48z"/>
<path d="M2603 2180 c-13 -5 -23 -14 -23 -19 0 -5 -7 -17 -16 -26 -11 -11 -13
-19 -6 -28 6 -7 12 -33 14 -57 2 -38 7 -46 26 -48 20 -3 22 0 22 47 0 39 4 51
15 51 8 0 15 7 15 15 0 8 -7 15 -15 15 -8 0 -15 7 -15 15 0 9 9 15 21 15 12 0
19 5 17 13 -6 16 -27 18 -55 7z"/>
<path d="M3100 2095 c0 -87 2 -95 19 -95 17 0 20 8 23 48 3 39 6 47 23 47 17
0 20 -8 23 -47 3 -40 6 -48 23 -48 16 0 19 7 19 54 0 73 -25 100 -71 76 -17
-10 -19 -7 -19 25 0 28 -4 35 -20 35 -19 0 -20 -7 -20 -95z"/>
<path d="M3507 2183 c-4 -3 -7 -46 -7 -95 0 -81 2 -88 20 -88 19 0 20 7 20 95
0 73 -3 95 -13 95 -8 0 -17 -3 -20 -7z"/>
<path d="M3286 2095 c-15 -47 -29 -92 -32 -100 -4 -9 0 -15 9 -15 8 0 18 10
21 23 3 12 17 57 30 100 18 57 21 77 11 77 -7 0 -24 -35 -39 -85z"/>
<path d="M2840 2150 c0 -11 -4 -20 -10 -20 -5 0 -10 -7 -10 -15 0 -8 5 -15 10
-15 6 0 10 -15 10 -34 0 -40 22 -66 56 -66 29 0 32 25 4 33 -30 8 -28 64 2 69
29 4 36 28 8 28 -13 0 -24 8 -27 20 -3 11 -14 20 -24 20 -12 0 -19 -7 -19 -20z"/>
<path d="M2702 2130 c-42 -17 -49 -72 -14 -112 23 -28 112 -22 112 6 0 8 -15
12 -41 12 -25 -1 -44 4 -46 12 -3 8 10 12 47 12 49 0 51 1 45 23 -8 27 -42 57
-64 56 -9 0 -26 -4 -39 -9z m56 -37 c2 -8 -6 -13 -22 -13 -25 0 -33 10 -19 24
10 10 36 3 41 -11z"/>
<path d="M2982 2130 c-42 -17 -49 -72 -14 -112 21 -25 92 -25 92 0 0 13 -8 17
-32 17 -27 0 -34 4 -36 23 -5 32 16 55 45 47 16 -4 23 -1 23 9 0 24 -37 32
-78 16z"/>
<path d="M3385 2128 c-27 -15 -35 -28 -35 -60 0 -41 33 -70 77 -66 45 4 58 28
16 28 -49 0 -68 34 -37 64 10 10 24 14 40 10 17 -4 24 -2 24 9 0 27 -49 35
-85 15z"/>
<path d="M3610 2127 c-19 -9 -26 -22 -28 -51 -4 -49 19 -76 65 -76 68 0 99 78
47 119 -31 24 -49 26 -84 8z m62 -42 c9 -21 9 -29 -4 -42 -21 -21 -48 -10 -48
20 0 23 16 47 32 47 5 0 14 -11 20 -25z"/>
<path d="M3812 2131 c-7 -4 -24 -6 -38 -3 -23 4 -24 3 -24 -62 0 -59 2 -66 20
-66 16 0 20 7 20 34 0 47 9 66 31 66 16 0 19 -8 19 -50 0 -43 3 -50 20 -50 18
0 20 7 20 60 0 48 -4 61 -19 70 -24 12 -32 12 -49 1z"/>
<path d="M3952 2130 c-42 -17 -49 -72 -14 -112 23 -28 112 -22 112 6 0 8 -15
12 -41 12 -25 -1 -44 4 -46 12 -3 8 10 12 47 12 49 0 51 1 45 23 -8 27 -42 57
-64 56 -9 0 -26 -4 -39 -9z m56 -37 c2 -8 -6 -13 -22 -13 -25 0 -33 10 -19 24
10 10 36 3 41 -11z"/>
<path d="M10744 1627 c-3 -8 -4 -49 -2 -93 3 -78 18 -106 28 -51 l5 28 29 -30
c17 -17 37 -31 45 -31 10 0 1 14 -23 39 l-37 38 32 26 c19 14 30 29 27 33 -4
3 -22 -6 -40 -21 l-33 -28 -3 51 c-3 49 -17 68 -28 39z"/>
<path d="M10290 1585 c0 -30 35 -135 45 -135 7 0 19 24 27 53 l15 52 14 -49
c8 -27 19 -51 26 -53 11 -4 43 86 43 121 0 35 -19 13 -31 -36 -7 -29 -14 -48
-15 -43 -2 6 -8 29 -14 53 -6 23 -16 42 -23 42 -7 0 -19 -24 -27 -52 -7 -29
-15 -48 -16 -43 -2 6 -8 29 -14 53 -6 23 -15 42 -20 42 -6 0 -10 -2 -10 -5z"/>
<path d="M10507 1572 c-37 -40 -7 -122 43 -122 52 0 81 88 42 123 -24 22 -65
21 -85 -1z m75 -27 c15 -33 -3 -75 -32 -75 -29 0 -47 42 -32 75 7 15 20 25 32
25 12 0 25 -10 32 -25z"/>
<path d="M10650 1516 c0 -77 17 -82 22 -6 2 35 8 47 26 55 32 14 27 23 -13 22
l-35 -1 0 -70z"/>
<path d="M10892 1578 c-23 -23 -13 -48 23 -64 48 -20 48 -49 -1 -41 -25 4 -34
2 -31 -6 5 -16 51 -21 77 -7 34 18 25 50 -20 67 -47 19 -47 38 -2 38 19 0 32
5 32 12 0 17 -62 17 -78 1z"/>
<path d="M11010 1493 c0 -55 4 -93 10 -93 6 0 10 13 10 29 0 28 2 29 34 24 27
-4 36 -1 50 18 20 29 21 68 1 97 -13 17 -24 21 -60 20 l-45 -2 0 -93z m92 52
c16 -36 -4 -78 -35 -73 -17 2 -23 11 -25 36 -2 19 -1 40 2 48 9 23 45 16 58
-11z"/>
<path d="M11177 1583 c-14 -13 -6 -19 21 -15 18 2 33 -2 41 -12 12 -14 10 -16
-13 -16 -40 0 -66 -17 -66 -43 0 -29 18 -47 45 -47 12 0 26 5 33 12 9 9 12 9
12 0 0 -7 5 -12 10 -12 17 0 12 107 -6 124 -15 16 -65 22 -77 9z m73 -69 c0
-3 -5 -14 -10 -25 -19 -34 -70 -19 -56 16 5 14 66 22 66 9z"/>
<path d="M11327 1572 c-23 -25 -22 -84 2 -106 21 -19 72 -19 78 0 2 7 -6 10
-22 7 -33 -7 -55 12 -55 47 0 35 22 54 55 47 16 -3 24 0 22 7 -6 20 -62 19
-80 -2z"/>
<path d="M11460 1570 c-56 -56 8 -143 84 -114 29 11 17 23 -17 17 -24 -4 -39
0 -52 13 -18 19 -17 19 33 22 47 3 52 5 52 26 0 50 -63 73 -100 36z m68 -12
c20 -20 14 -28 -23 -28 -22 0 -35 5 -35 13 0 28 36 37 58 15z"/>
<path d="M5830 1435 c0 -8 5 -15 10 -15 6 0 10 7 10 15 0 8 -4 15 -10 15 -5 0
-10 -7 -10 -15z"/>
<path d="M5100 1350 c0 -53 4 -90 10 -90 6 0 10 18 10 40 0 31 4 40 18 40 25
0 37 -11 56 -47 16 -32 36 -44 36 -22 0 7 -9 26 -20 45 -13 20 -17 35 -10 39
14 9 13 58 -2 73 -7 7 -31 12 -55 12 l-43 0 0 -90z m75 40 c0 -20 -6 -26 -27
-28 -25 -3 -28 0 -28 28 0 28 3 31 28 28 21 -2 27 -8 27 -28z"/>
<path d="M5900 1421 c0 -10 -6 -22 -12 -25 -10 -5 -10 -7 0 -12 7 -3 12 -26
12 -60 0 -49 2 -54 24 -60 14 -3 31 -2 38 2 9 6 6 10 -12 14 -22 5 -25 12 -28
53 -3 45 -2 47 23 47 15 0 24 4 20 10 -3 6 -15 10 -26 10 -10 0 -19 6 -19 14
0 8 -4 18 -10 21 -5 3 -10 -3 -10 -14z"/>
<path d="M5261 1374 c-27 -34 -26 -54 0 -88 17 -22 28 -26 57 -24 19 2 37 9
40 15 2 9 -5 11 -27 7 -30 -6 -61 8 -61 27 0 5 20 9 45 9 53 0 66 17 41 55
-23 34 -68 34 -95 -1z m77 -16 c3 -15 -4 -18 -32 -18 -38 0 -44 8 -24 28 17
17 52 11 56 -10z"/>
<path d="M5400 1302 c0 -70 3 -93 13 -90 6 3 13 16 15 29 3 22 7 25 31 21 35
-5 61 27 61 74 0 43 -26 63 -78 61 l-42 -1 0 -94z m91 55 c16 -34 -4 -79 -34
-75 -17 2 -23 11 -25 36 -2 19 -1 40 2 48 9 22 45 17 57 -9z"/>
<path d="M5567 1382 c-23 -25 -22 -85 1 -105 40 -37 102 -4 102 53 0 58 -67
92 -103 52z m71 -49 c3 -35 0 -42 -18 -48 -28 -9 -50 11 -50 44 0 33 18 53 45
49 16 -2 21 -12 23 -45z"/>
<path d="M5706 1385 c-21 -22 -6 -49 35 -64 41 -14 32 -36 -15 -35 -41 1 -48
-13 -11 -22 80 -20 116 51 39 76 -42 14 -39 35 4 35 40 0 36 19 -5 23 -18 2
-37 -3 -47 -13z"/>
<path d="M5830 1330 c0 -40 4 -70 10 -70 6 0 10 30 10 70 0 40 -4 70 -10 70
-6 0 -10 -30 -10 -70z"/>
<path d="M6008 1390 c-22 -13 -31 -60 -19 -93 11 -28 47 -43 79 -32 41 12 47
103 9 127 -16 11 -49 9 -69 -2z m61 -24 c17 -20 10 -67 -11 -79 -23 -15 -48 8
-48 42 0 45 35 66 59 37z"/>
<path d="M6140 1330 c0 -40 4 -70 10 -70 6 0 10 18 10 41 0 50 15 79 40 79 11
0 20 5 20 10 0 14 -33 13 -48 -2 -9 -9 -12 -9 -12 0 0 7 -4 12 -10 12 -6 0
-10 -30 -10 -70z"/>
<path d="M6230 1391 c0 -10 8 -32 34 -93 15 -36 15 -39 -5 -59 -23 -23 -17
-39 9 -23 16 11 80 145 81 172 2 28 -23 4 -38 -36 -8 -23 -18 -42 -22 -42 -3
0 -14 20 -23 45 -16 40 -36 60 -36 36z"/>
<path d="M500 1275 c0 -50 4 -85 10 -85 6 0 10 16 10 35 0 31 3 35 25 35 19 0
29 -9 42 -35 9 -19 23 -35 30 -35 18 0 16 9 -8 49 -14 24 -17 37 -10 44 15 15
14 50 -1 65 -7 7 -31 12 -55 12 l-43 0 0 -85z m78 38 c-2 -22 -9 -29 -30 -31
-25 -3 -28 0 -28 27 0 28 3 31 31 31 27 0 30 -3 27 -27z"/>
<path d="M1181 1337 c-8 -22 1 -116 14 -137 8 -13 55 -13 55 0 0 6 -9 10 -20
10 -17 0 -20 7 -20 45 0 38 3 45 20 45 11 0 20 5 20 10 0 6 -9 10 -20 10 -13
0 -20 7 -20 20 0 27 -18 25 -29 -3z"/>
<path d="M667 1308 c-9 -7 -20 -27 -23 -45 -10 -53 47 -97 100 -77 26 10 18
27 -9 20 -30 -8 -65 8 -65 29 0 11 13 15 50 15 54 0 61 10 34 48 -17 25 -60
29 -87 10z m71 -25 c2 -9 -8 -13 -32 -13 -34 0 -44 8 -29 24 11 11 56 2 61
-11z"/>
<path d="M800 1253 c0 -35 4 -63 10 -63 6 0 10 13 10 29 0 45 17 81 39 81 23
0 31 -19 31 -71 0 -21 5 -39 10 -39 6 0 10 19 10 43 0 51 11 70 36 65 15 -2
20 -14 22 -56 2 -37 7 -52 18 -52 17 0 20 64 4 104 -7 20 -17 26 -39 26 -16 0
-33 -5 -36 -10 -5 -8 -11 -8 -19 -1 -7 6 -31 9 -54 8 l-42 -1 0 -63z"/>
<path d="M1047 1302 c-37 -40 -7 -122 43 -122 52 0 81 88 42 123 -24 22 -65
21 -85 -1z m73 -26 c16 -44 -8 -84 -44 -70 -20 8 -29 50 -16 74 15 28 48 25
60 -4z"/>
<path d="M1286 1298 c-43 -60 19 -138 88 -112 26 10 18 27 -9 20 -30 -8 -65 8
-65 29 0 11 13 15 51 15 48 0 50 1 43 23 -11 36 -25 47 -60 47 -23 0 -38 -7
-48 -22z m82 -15 c2 -9 -8 -13 -32 -13 -34 0 -44 8 -29 24 11 11 56 2 61 -11z"/>
<path d="M8530 931 c0 -28 -2 -29 -34 -24 -27 4 -36 1 -50 -18 -35 -50 -2
-130 47 -114 12 4 30 7 40 6 15 0 17 11 17 90 0 53 -4 89 -10 89 -5 0 -10 -13
-10 -29z m-10 -62 c23 -42 -13 -95 -46 -68 -14 12 -19 70 -7 82 13 14 43 6 53
-14z"/>
<path d="M8220 865 c0 -50 4 -85 10 -85 6 0 10 35 10 85 0 50 -4 85 -10 85 -6
0 -10 -35 -10 -85z"/>
<path d="M8290 843 c0 -35 4 -63 10 -63 6 0 10 18 10 39 0 55 8 71 36 71 22 0
24 -4 24 -55 0 -42 3 -55 15 -55 11 0 15 12 15 46 0 69 -12 84 -65 82 l-45 -1
0 -64z"/>
<path d="M8613 902 c-6 -4 -16 -20 -22 -35 -14 -35 1 -74 33 -88 27 -12 76 -5
76 11 0 6 -11 8 -24 4 -29 -7 -66 11 -66 31 0 11 13 15 50 15 54 0 61 10 34
48 -15 22 -57 29 -81 14z m65 -29 c2 -9 -8 -13 -33 -13 -33 0 -36 2 -25 15 15
18 51 16 58 -2z"/>
<path d="M8744 888 c28 -39 29 -47 6 -75 -26 -34 -8 -45 20 -11 l19 23 16 -22
c9 -13 23 -23 31 -23 12 0 9 8 -9 32 l-25 32 25 33 c19 25 22 33 10 33 -8 0
-22 -10 -31 -22 l-15 -23 -20 23 c-10 12 -25 22 -31 22 -9 0 -7 -7 4 -22z"/>
<path d="M3510 694 c0 -86 2 -95 18 -92 13 2 18 15 20 50 2 31 8 48 19 52 22
9 33 -11 33 -62 0 -36 3 -43 18 -40 18 3 28 61 18 104 -7 28 -49 42 -71 24
-13 -11 -15 -7 -15 24 0 29 -4 36 -20 36 -19 0 -20 -7 -20 -96z"/>
<path d="M3020 644 c0 -86 2 -95 18 -92 11 2 18 14 20 36 3 28 6 31 18 22 21
-19 63 -3 75 27 23 60 -25 124 -72 95 -11 -7 -19 -8 -19 -2 0 5 -9 10 -20 10
-19 0 -20 -7 -20 -96z m85 26 c0 -28 -4 -35 -20 -35 -13 0 -21 8 -23 23 -5 34
5 54 25 50 13 -2 18 -13 18 -38z"/>
<path d="M3190 681 c0 -71 16 -91 61 -74 16 6 29 7 29 2 0 -5 9 -9 20 -9 18 0
20 7 20 70 0 63 -2 70 -20 70 -17 0 -20 -7 -20 -44 0 -44 -19 -74 -40 -61 -5
3 -10 28 -10 56 0 42 -3 49 -20 49 -18 0 -20 -7 -20 -59z"/>
<path d="M3366 724 c-19 -18 -19 -20 -6 -43 5 -10 23 -21 40 -24 43 -9 39 -30
-5 -25 -24 3 -35 0 -35 -9 0 -18 47 -28 79 -17 20 7 26 16 26 39 0 26 -5 31
-37 39 -48 12 -50 29 -4 25 39 -4 58 7 36 21 -23 15 -77 12 -94 -6z"/>
<path d="M7660 225 c0 -8 9 -15 20 -15 11 0 20 7 20 15 0 8 -9 15 -20 15 -11
0 -20 -7 -20 -15z"/>
<path d="M9910 211 c0 -28 -2 -29 -33 -24 -44 7 -67 -16 -67 -67 0 -47 35 -79
67 -62 10 6 31 8 46 5 l27 -5 0 91 c0 84 -1 91 -20 91 -15 0 -20 -7 -20 -29z
m-12 -85 c4 -32 -15 -51 -35 -34 -14 11 -18 50 -6 62 15 15 38 -1 41 -28z"/>
<path d="M10080 210 c0 -28 -2 -29 -30 -23 -41 8 -70 -19 -70 -64 0 -42 33
-78 63 -68 12 4 34 6 50 6 l27 -1 0 90 c0 83 -1 90 -20 90 -16 0 -20 -7 -20
-30z m-4 -75 c7 -29 -11 -56 -31 -49 -32 13 -28 74 5 74 13 0 22 -9 26 -25z"/>
<path d="M7750 210 c0 -11 -4 -20 -10 -20 -5 0 -10 -7 -10 -15 0 -8 4 -15 9
-15 6 0 11 -21 13 -47 3 -48 3 -48 41 -51 28 -2 37 0 37 12 0 9 -9 16 -20 16
-16 0 -20 7 -20 35 0 31 3 35 26 35 31 0 28 23 -4 28 -14 2 -22 11 -22 23 0
12 -7 19 -20 19 -13 0 -20 -7 -20 -20z"/>
<path d="M6862 174 c-53 -37 -1 -136 62 -120 14 3 26 13 26 22 0 11 -6 13 -19
9 -20 -6 -51 17 -51 39 0 19 22 36 47 36 14 0 23 6 23 15 0 20 -59 20 -88 -1z"/>
<path d="M7000 170 c-53 -53 11 -138 84 -110 47 18 58 77 20 114 -22 23 -80
20 -104 -4z m78 -44 c4 -30 -12 -48 -35 -39 -14 5 -18 54 -6 67 15 15 38 -1
41 -28z"/>
<path d="M7160 124 c0 -57 2 -64 19 -64 17 0 20 8 23 47 2 36 7 49 21 51 14 3
17 -4 17 -47 0 -47 2 -51 24 -51 23 0 25 5 28 48 2 34 7 47 18 47 11 0 16 -13
18 -47 3 -40 6 -48 23 -48 16 0 19 7 19 53 0 29 -5 58 -12 65 -15 15 -54 16
-63 2 -4 -6 -13 -7 -23 -1 -9 4 -38 9 -64 9 l-48 0 0 -64z"/>
<path d="M7410 124 c0 -57 2 -64 20 -64 16 0 20 7 20 34 0 43 9 66 25 66 14 0
25 -31 25 -72 0 -21 5 -28 19 -28 17 0 20 8 23 48 2 34 7 47 18 47 11 0 16
-13 18 -47 3 -40 6 -48 23 -48 16 0 19 7 19 53 0 29 -5 58 -12 65 -15 15 -55
16 -63 2 -4 -7 -11 -8 -18 -2 -7 6 -36 10 -64 10 l-53 0 0 -64z"/>
<path d="M7660 125 c0 -58 2 -65 20 -65 18 0 20 7 20 65 0 58 -2 65 -20 65
-18 0 -20 -7 -20 -65z"/>
<path d="M9657 183 c-16 -15 -5 -23 33 -23 22 0 40 -4 40 -10 0 -5 -13 -10
-29 -10 -31 0 -61 -22 -61 -44 0 -24 37 -48 62 -40 13 4 36 6 52 5 l29 -3 -5
51 c-3 28 -11 57 -18 66 -13 15 -90 22 -103 8z m73 -77 c0 -19 -17 -29 -37
-22 -12 5 -13 9 -3 21 16 19 40 19 40 1z"/>
</g>
</svg>
